<?xml version="1.0" encoding="utf-8"?>
<!-- Generator: Adobe Illustrator 19.0.0, SVG Export Plug-In . SVG Version: 6.00 Build 0)  -->
<svg version="1.1" id="Layer_1" xmlns="http://www.w3.org/2000/svg" xmlns:xlink="http://www.w3.org/1999/xlink" x="0px" y="0px"
	 viewBox="0 0 80.6 80.6" style="enable-background:new 0 0 80.6 80.6;" xml:space="preserve">
<style type="text/css">
	.st0{fill:#BF4B4F;}
	.st1{fill:#FFFFFF;}
</style>
<g id="facebook">
	<path id="circle" class="st0" d="M79.9,33.1c-0.6-6.1-4-12.9-10.3-20.5C60.8,4.2,51.4,0,41.5,0h-2.4c-2.8,0-6.1,0.5-10,1.6
		C18.8,5,11.2,10.8,6.2,18.8C3.1,23.6,1,29.9,0,37.7c0.2,0,0.2,0.1,0.2,0.3C0.1,38.2,0,38.5,0,38.9v0.5c0,11,3.7,20.6,11.2,28.9
		c8.8,8.3,18.4,12.4,28.6,12.4h0.9c2.8,0,6.7-0.6,11.7-1.9c9.8-3.4,17.4-9.4,22.7-18.1c3.6-7.1,5.5-13.3,5.5-18.6v-3.3
		C80.6,37.8,80.4,36,79.9,33.1z M51.5,23.6h-4.8c-2.9,0.3-4.3,1.6-4.3,4.1v5.7c0,0.3,0.2,0.5,0.5,0.5h8.1v0.5
		c-0.5,5.2-0.9,7.8-1.2,7.8h-6.9c-0.3,0-0.4,0.2-0.5,0.5v22.2H34l-0.1-1.4V42.9c-0.2-0.5-0.5-0.7-0.7-0.7h-4.1v-8.3h4.1
		c0.5-0.3,0.7-0.5,0.7-0.8l-0.2-7.4c0.3-1.7,0.6-3,0.9-3.8c1.7-4.1,5.3-6.2,10.7-6.2h1.2c3.3,0,5,0.2,5,0.7V23.6z"/>
	<path id="f" class="st1" d="M42.5,27.7v5.7c0,0.3,0.2,0.5,0.5,0.5h8.1v0.5c-0.5,5.2-0.9,7.8-1.2,7.8h-6.9c-0.3,0-0.4,0.2-0.5,0.5
		v22.2H34l-0.1-1.4V42.9c-0.2-0.5-0.5-0.7-0.7-0.7h-4.1v-8.3h4.1c0.5-0.3,0.7-0.5,0.7-0.8l-0.2-7.4c0.3-1.7,0.6-3,0.9-3.8
		c1.7-4.1,5.3-6.2,10.7-6.2h1.2c3.3,0,5,0.2,5,0.7v7.1h-4.8C43.9,23.8,42.5,25.2,42.5,27.7z"/>
</g>
</svg>
