<?xml version="1.0" encoding="utf-8"?>
<!-- Generator: Adobe Illustrator 19.0.0, SVG Export Plug-In . SVG Version: 6.00 Build 0)  -->
<svg version="1.1" id="inspirational" xmlns="http://www.w3.org/2000/svg" xmlns:xlink="http://www.w3.org/1999/xlink" x="0px"
	 y="0px" viewBox="0 0 1198.8 83.4" style="enable-background:new 0 0 1198.8 83.4;" xml:space="preserve">
	<path id="XMLID_113_" d="M0,4.5c2.3-0.3,4.5-0.8,6.7-0.7c2.9,0.1,3.1,2.4,3.1,4.7c0,12,0,24,0,36c0,10.5,0.1,21-0.1,31.5
		c0,1.8-0.7,5.1-1.6,5.3C5.5,81.8,2.3,82.9,0,80C0,54.8,0,29.6,0,4.5z"/>
	<path id="XMLID_110_" d="M882.2,42.1c0.1,19.6-13,35.3-28.1,39.7c-14,4-25.9,0.3-36.3-10.3c-7.9-8.1-10.8-17.9-12.2-28.6
		c-2.3-16.9,15.5-39.8,32.1-41.8c23.5-2.8,39.1,13,43.3,31.7C881.7,35.9,881.8,39,882.2,42.1z M870.5,42.4c0.5-12-2.3-19.6-7.5-26.7
		c-10-13.5-27-13.9-37.3,0c-7.2,9.8-8.8,20.9-7.6,32.3c1,9.5,4.1,18.4,12.1,25.1c8.9,7.4,24.7,6.1,32.1-3.9
		C868.3,61.3,870.9,52.4,870.5,42.4z"/>
	<path id="XMLID_109_" d="M439.4,4.5c12.2,0,24.1-1.3,35.5,0.4c11.5,1.6,17.5,8.9,17.8,19.4c0.3,9.9-7.9,18.4-16.9,20.4
		c-2.4,0.5-4.8,0.8-7.7,1.2c2.4,3.6,4.6,7,7,10.4c5,7,10.1,14,15.1,21c1.7,2.4,0.9,4.3-2,4.3c-4.1,0.1-7.6,0.4-10.6-4.4
		c-7.2-11.4-15.5-22-23.3-32.9c-0.7-1-1-2.2-1.7-3.7c1.9-0.3,3.6-0.6,5.2-0.7c4.4-0.2,8.9,0.6,13.1-0.4c11.8-2.9,13.9-16.8,7.4-25
		c-3.5-4.4-8.4-5.8-13.8-5.9c-4.9-0.1-9.8,0-15.4,0c0,2.1,0,3.9,0,5.8c0,21.1-0.1,42.1,0.1,63.2c0,3.5-1.6,4.1-4.5,4.1
		c-2.6,0-5.4,0.4-5.4-3.6C439.4,53.5,439.4,28.8,439.4,4.5z"/>
	<path id="iNs" d="M120.8,82.9c-16.1-21.1-32.3-42.2-49.1-64.3c-0.1,2.6-0.2,4-0.2,5.4c0,17.5,0,35-0.1,52.5c0,1.6-0.6,3.7-1.7,4.6
		c-2.3,1.9-5.3,0.3-5.5-2.8c-0.2-3.3-0.1-6.6-0.1-9.8c0-19.8,0-39.7,0.1-59.5c0-1.7,0.8-5,1.3-5c2.9,0,7-0.4,8.6,1.4
		c4.8,5,8.7,10.9,13,16.4c9.2,12,18.5,24,28.8,35.8c0-1.4,0-2.8,0-4.2c0-15.1,0-30.1,0-45.2c0-2.2-0.7-4.7,3.2-4.8
		c3.7-0.1,3.4,2.1,3.4,4.6c0,23.1,0,46.3,0,69.4c0,1.5,0,3,0,4.5C121.9,82.3,121.3,82.6,120.8,82.9z"/>
	<path id="Nal" d="M985.2,58.8c0.1-2.5,0.2-3.8,0.2-5.1c0-15.3,0-30.6,0-46c0-2.5,0.1-4.2,3.4-4.2c3.1,0,3.2,1.7,3.2,4
		c0,19,0.2,38-0.1,56.9c-0.1,5.1-1.8,10.2-3,16.6c-16.4-21.4-32-41.6-48.4-63c-0.1,2.5-0.2,3.9-0.2,5.3c0,18.1,0,36.1,0,54.2
		c0,2.5-0.1,4.3-3.4,4.2c-2.2-0.1-3.2-0.8-3.2-3.1c0.1-23.9,0-47.9,0.1-71.8c0-1,1-2.9,1.5-2.9c2.5,0,6-0.4,7.5,1.1
		c4.5,4.5,8.3,9.8,12.3,14.9c6.8,8.8,13.6,17.6,20.4,26.5c2.2,2.8,4.2,5.8,6.4,8.6C982.5,56,983.5,57,985.2,58.8z"/>
	<path id="rAt" d="M576.3,1.2c10.6,26.6,21.1,53.2,32,80.4c-2.8,0-5,0.5-6.8-0.1c-1.9-0.6-4.3-1.9-5.1-3.6
		c-2.4-5.1-4.1-10.5-6.1-15.7c-1.1-2.8-2.9-4.4-6.3-4.3c-6.8,0.2-13.6,0-20.5-0.2c-3.4-0.1-5.5,1.2-6.8,4.5c-2,5.3-4.2,10.4-6.5,15.6
		c-0.5,1.1-1.2,2.6-2.2,3c-1.3,0.5-3,0.1-4.5,0.2c0-1.3-0.3-2.7,0.1-3.8c4.2-10.9,8.5-21.7,12.8-32.5c5.3-13.2,10.6-26.3,16-39.4
		c0.6-1.4,1.6-2.7,2.4-4C575.3,1.2,575.8,1.2,576.3,1.2z M585.7,50.9c-4-10.1-7.8-19.7-12.1-30.3c-4.3,10.7-8.2,20.4-12.1,30.3
		C569.7,50.9,577.5,50.9,585.7,50.9z"/>
	<path id="nAl" d="M1041.3,80c7.1-17.9,14.2-35.8,21.4-53.7c2.9-7.3,5.9-14.6,9-21.9c0.6-1.4,1.8-2.5,3.2-4.5
		c11,27.8,21.5,54.3,32.1,81c-8.8,1.7-10.3,0.9-13.1-6.4c-1.7-4.5-3.5-9-5.3-13.5c-1-2.5-2.7-3.4-5.4-3.4c-7,0.2-14,0.3-20.9,0
		c-3.7-0.1-5.6,1.7-6.8,4.6c-2.2,5.2-4.1,10.5-6.2,15.7C1047.6,82.1,1045.5,82.6,1041.3,80z M1084.5,51.2c-4-10.1-7.8-19.9-12.1-30.6
		c-2.3,6.1-4.1,10.9-6.1,15.7c-2,4.9-4.1,9.7-6.3,14.9C1068.4,51.2,1076.1,51.2,1084.5,51.2z"/>
	<path id="P" d="M271,42.2c0-11.2,0.1-22.4-0.1-33.6c0-3.8,1.4-5.1,5.1-5c7.5,0.2,15-0.1,22.6,0.1c9.2,0.3,16.7,3.9,21.7,11.9
		c3.9,6.3,1.1,19.6-4.6,24.1c-5.5,4.2-11.6,5.9-18.4,5.8c-4.1-0.1-8.2,0.2-12.3-0.1c-3.4-0.2-4.2,1.2-4.1,4.3
		c0.2,9.3-0.1,18.6,0.1,27.9c0.1,3.5-1.3,4.1-4.3,4.1c-3-0.1-5.7,0.2-5.6-4.2C271.1,65.7,271,54,271,42.2z M291.5,39.8
		c1.6,0,3.3,0,4.9,0c7.7,0,14.1-5.2,14.8-11.7c1-9.7-3.3-17.1-11.4-18.6c-4.9-0.9-10-0.6-15-1c-3-0.2-4.2,0.8-4.1,3.9
		c0.2,5.6,0.1,11.2,0.1,16.8C280.8,39.8,280.8,39.8,291.5,39.8z"/>
	<path id="S" d="M211.7,16c-3.6-5.3-7.4-9.3-14.1-9.2c-7.2,0-12,5.6-12.9,12.4c-1,7.6,2.2,12.6,9.2,15.8c6,2.8,11.8,6.1,17.5,9.6
		c7.3,4.5,8.1,12,6.7,19.2c-3,16.4-21.9,25-36.3,16.2c-2.4-1.5-4.3-4-6.2-6.2c-1.6-1.8-1.5-3.7,0.6-5.1c2.1-1.4,3.2,0.1,4.3,1.8
		c4.9,7.1,12.6,9,20,5.6c6.2-2.9,8.1-11.9,7-17.1c-1.1-4.9-3.9-8.3-8.6-10.5c-5.1-2.4-10-5.3-15-7.8c-13.6-6.9-13-26.3-0.6-34.4
		c10.3-6.7,22-6.7,30.7,3.1C218,13.8,214,14.2,211.7,16z"/>
	<path id="T" d="M670.9,9.2c-6.3,0-12,0-17.6,0c-0.8-5.5-0.7-5.6,4.2-5.6c12.5,0,24.9,0,37.4,0c1.9,0,3.9-0.3,4,2.7
		c0.1,3.2-1.9,3.1-4.1,3c-3.3,0-6.6,0.2-9.8-0.1c-3.3-0.2-4.2,1-4.2,4.2c0.1,20.8,0.1,41.6,0.1,62.4c0,5.4-2.7,7.5-7.7,5.4
		c-1.2-0.5-2-3-2.1-4.6c-0.1-19.3-0.1-38.6-0.1-57.9C670.9,15.9,670.9,12.9,670.9,9.2z"/>
	<path id="L" d="M1169.3,75.1c8.7,0,16.7,0,24.8,0c2.4,0,4.6,0.3,4.7,3.1c0.1,3.2-2.3,3.4-4.8,3.4c-9.8,0-19.7-0.1-29.5,0
		c-3.8,0.1-5-1.5-5-5.1c0.1-22.7,0.1-45.4,0-68.1c0-3.5,1-5.2,5-5.2c3.7,0,5,1.1,4.9,4.9c-0.2,20.6-0.1,41.3-0.1,61.9
		C1169.3,71.6,1169.3,73.1,1169.3,75.1z"/>
	<path id="pIr" d="M375.3,42.2c0-11.5,0.1-23-0.1-34.4c0-3.3,1-4.4,4.2-4.2c3.1,0.2,5.7,0.1,5.7,4.4c-0.1,23.1-0.1,46.2,0,69.3
		c0,4.2-2.3,4.3-5.5,4.4c-3.6,0.1-4.4-1.5-4.4-4.6C375.3,65.5,375.3,53.9,375.3,42.2z"/>
	<path id="Ion" d="M748.9,41.8c0-11.2,0.1-22.4-0.1-33.6c0-3.2,0.6-4.8,4.3-4.6c3.2,0.2,5.6,0.3,5.6,4.5c-0.1,23-0.1,45.9,0,68.9
		c0,4.1-1.9,4.8-5.5,4.8c-4,0-4.3-2.1-4.3-5.1C749,65,748.9,53.4,748.9,41.8z"/>
</svg>
