<?xml version="1.0" encoding="utf-8"?>
<!-- Generator: Adobe Illustrator 19.0.0, SVG Export Plug-In . SVG Version: 6.00 Build 0)  -->
<svg version="1.1" id="Layer_1" xmlns="http://www.w3.org/2000/svg" xmlns:xlink="http://www.w3.org/1999/xlink" x="0px" y="0px"
	 viewBox="0 0 80.6 80.6" style="enable-background:new 0 0 80.6 80.6;" xml:space="preserve">
<style type="text/css">
	.st0{fill:#BF4B4F;}
	.st1{fill:#FFFFFF;}
</style>
<g id="insta">
	<path id="XMLID_36_" class="st0" d="M77,23.7c-2.6-6-6.9-11.4-12.8-16c-7.8-5.1-14.8-7.6-21-7.6h-5.8c-7.1,0-15,3.3-23.6,9.8
		C4.6,18.9,0,29,0,40.2C0,47,1.9,53.9,5.7,60.9C14.6,74,26,80.5,40.1,80.5c11.2,0,21.1-4.1,29.6-12.4c7.3-8.8,11-17.6,11-26.5v-3.3
		C80.6,34.3,79.4,29.5,77,23.7z M61.8,48.8c0,5-1.4,8.6-4.1,10.7c-1.2,1.8-5.8,2.6-13.8,2.6c-10.5,0.3-16.7-0.1-18.6-1.2
		c-4.3-2.3-6.4-6.8-6.4-13.6V34.9c0-2.6,0.2-4.8,0.5-6.7c2.1-6,6.2-9.1,12.4-9.1h17.4l3,0.2l3,1c4.4,2,6.7,6.1,6.7,12.4V48.8z"/>
	<path id="XMLID_44_" class="st1" d="M55.1,20.4l-3-1l-3-0.2H31.7c-6.2,0-10.3,3-12.4,9.1c-0.3,1.8-0.5,4.1-0.5,6.7v12.4
		c0,6.8,2.1,11.3,6.4,13.6c1.9,1.1,8.1,1.5,18.6,1.2c8,0,12.6-0.9,13.8-2.6c2.7-2.2,4.1-5.7,4.1-10.7v-16
		C61.8,26.5,59.5,22.4,55.1,20.4z M58.2,49.5c-0.8,5.9-3.3,8.8-7.4,8.8h-6.9c-3.2,0-6.6,0.1-10.2,0.2c-6,0-9.5-1.9-10.5-5.7
		c-0.3-2.1-0.5-5.3-0.5-9.5V38c0-7.9,0.6-11.9,1.9-11.9c1.3-2,3.9-3.1,7.8-3.1h16.7c6,0,9.1,3.2,9.1,9.5V49.5z"/>
	<path id="XMLID_55_" class="st0" d="M49.1,23H32.4c-4,0-6.6,1-7.8,3.1c-1.3,0-1.9,4-1.9,11.9v5.3c0,4.3,0.2,7.4,0.5,9.5
		c1,3.8,4.5,5.7,10.5,5.7c3.6-0.2,7-0.2,10.2-0.2h6.9c4.1,0,6.6-2.9,7.4-8.8V32.6C58.2,26.2,55.2,23,49.1,23z M51.5,40.7
		c0,5.2-2.9,8.9-8.6,10.9h-4.8c-5.9-2-8.8-5.6-8.8-10.7c0.2-2.1,0.4-3.3,0.7-3.6c1.9-5.1,5.4-7.6,10.3-7.6h0.2
		c2.2,0,4.4,0.7,6.4,2.2c3,2.6,4.5,5.3,4.5,8.3V40.7z M52,31.9c-1.1,0-1.9-0.8-2.6-2.4c0-1.4,0.8-2.4,2.4-2.9c1.6,0,2.5,1,2.9,2.9
		C53.9,31.1,53.1,31.9,52,31.9z"/>
	<path id="XMLID_20_" class="st1" d="M54.6,29.5c-0.7,1.6-1.6,2.4-2.6,2.4c-1.1,0-1.9-0.8-2.6-2.4c0-1.4,0.8-2.4,2.4-2.9
		C53.3,26.6,54.3,27.5,54.6,29.5z"/>
	<path id="XMLID_41_" class="st1" d="M47,31.9c-2-1.4-4.2-2.2-6.4-2.2h-0.2c-4.9,0-8.3,2.5-10.3,7.6c-0.3,0.3-0.5,1.5-0.7,3.6
		c0,5.1,2.9,8.7,8.8,10.7h4.8c5.7-2,8.6-5.7,8.6-10.9v-0.5C51.5,37.2,50,34.4,47,31.9z M40.6,48.1c-3.2,0-5.5-1.6-6.9-4.8
		c-0.2-0.3-0.4-1.1-0.5-2.4c0.6-4.9,3-7.4,7.2-7.4h0.2c3.4,0,5.7,1.8,6.9,5.5c0.2,0.2,0.2,0.8,0.2,1.7C47,45.6,44.6,48.1,40.6,48.1z
		"/>
	<path id="XMLID_22_" class="st0" d="M47.7,40.7c-0.8,4.9-3.1,7.4-7.2,7.4c-3.2,0-5.5-1.6-6.9-4.8c-0.2-0.3-0.4-1.1-0.5-2.4
		c0.6-4.9,3-7.4,7.2-7.4h0.2c3.4,0,5.7,1.8,6.9,5.5C47.6,39.2,47.7,39.8,47.7,40.7z"/>
</g>
</svg>
