<?xml version="1.0" encoding="utf-8"?>
<!-- Generator: Adobe Illustrator 19.0.0, SVG Export Plug-In . SVG Version: 6.00 Build 0)  -->
<svg version="1.1" id="Layer_1" xmlns="http://www.w3.org/2000/svg" xmlns:xlink="http://www.w3.org/1999/xlink" x="0px" y="0px"
	 viewBox="0 0 80.6 80.6" style="enable-background:new 0 0 80.6 80.6;" xml:space="preserve">
<style type="text/css">
	.st0{fill:#BF4B4F;}
	.st1{fill:#FFFFFF;}
</style>
<g id="soundcloud">
	<path id="XMLID_359_" class="st0" d="M75.8,21.1c-8.7-14-20.4-21-35-21c-11.7,0-21.7,4.3-30,12.9C3.6,21.4,0,30.5,0,40.2
		c0,7.2,2.1,14.5,6.4,21.9c8.9,12.2,20.1,18.4,33.4,18.4c10.9,0,20.5-3.7,28.6-11.2c8.1-8.9,12.2-18.1,12.2-27.6v-2.4
		C80.6,33.7,79,27.6,75.8,21.1z M11.7,49h-0.5c0-0.1-0.1-1.1-0.2-3.1c0-0.7,0.1-1.7,0.2-3.1h0.5c0.2,1.4,0.2,2.3,0.2,2.6
		C11.9,46.2,11.9,47.4,11.7,49z M14.3,45.9c0,0.9-0.2,2.5-0.5,4.8v0.2h-0.5v-1.4c0-0.5-0.2-1.6-0.5-3.3l0.5-4.3v-0.7
		c0-0.3,0.2-0.4,0.5-0.5c0.3,2.5,0.5,4.2,0.5,5V45.9z M16.7,46.6c0,0.8-0.2,2.5-0.5,5v0.2h-0.5c0-1-0.2-2.9-0.5-5.7
		c0-0.5,0.2-2.5,0.5-6.2v-0.2h0.5c0,0.2,0.2,2,0.5,5.5V46.6z M18.6,52.1h-0.2l-0.5-0.3c0-0.7-0.1-2.5-0.2-5.5c0.2-3.9,0.2-6,0.2-6.4
		c0-0.3,0.2-0.4,0.5-0.5h0.2c0,0.3,0.2,2.4,0.5,6.2C19.1,46.1,18.9,48.2,18.6,52.1z M21,52.4h-0.2l-0.5-0.2c0-0.7-0.1-2.5-0.2-5.3
		c0-0.6,0.1-2.8,0.2-6.7c0-0.3,0.2-0.4,0.5-0.5H21l0.5,6.2L21,52.4z M23.4,52.4h-0.2c-0.4,0-0.7-2.2-0.9-6.4
		c0.3-4.4,0.5-7.5,0.5-9.3c0-0.5,0.2-0.7,0.5-0.7h0.2c0.2,1.9,0.3,5.1,0.5,9.5L23.4,52.4z M26,52.1c-0.3,0-0.4,0.2-0.5,0.5
		c-0.4,0-0.7-1.6-0.9-4.8c0.2,0,0.2-0.3,0.2-0.8v-0.2l-0.2-0.5c0.2,0,0.2-0.1,0.2-0.2v-0.7l-0.2-0.5c0.2,0,0.2-0.1,0.2-0.2v-5.2
		l0.2-1.2c-0.2,0-0.2-0.1-0.2-0.3c0.2-1.3,0.2-2.4,0.2-3.3v-0.9h0.5L26,34c0,2.2,0.1,6.2,0.2,11.9C26.1,48.9,26,51,26,52.1z
		 M28.6,45.9c0,1.4-0.1,3.5-0.2,6.4l-0.5,0.2c-0.4,0-0.8-2.4-0.9-7.1c0.2-0.6,0.2-1.3,0.2-1.9v-3.6c0-1.6,0.1-4,0.2-7.2l0.5-0.2
		l0.5,0.2c0.2,5.5,0.2,9.5,0.2,11.9V45.9z M31,51.6c-0.3,0.4-0.5,0.7-0.5,1h-0.2c-0.3,0-0.5-0.6-0.7-1.9h0.2L29.6,49v-3.6
		c0-3,0.1-7.4,0.2-13.1l0.5-0.2c0.2,0,0.5,0.3,0.7,0.9c0,4.8,0.1,9.1,0.3,12.9C31.1,47.9,31,49.8,31,51.6z M33.7,48.5l-0.2,1.2
		c0.2,0,0.2,0.1,0.2,0.2c-0.2,0-0.4,0.9-0.5,2.6h-0.5l-0.5-0.2C32.1,49,32,47,32,46.4l0.2-14.1h0.9c0.3,3.6,0.5,8.9,0.5,15.7V48.5z
		 M36,51.4c0,0.1-0.2,0.5-0.5,1.2h-0.2c-0.4-0.3-0.6-0.5-0.7-0.5c0-2.8-0.1-5-0.2-6.7c0.2-3,0.2-6.1,0.2-9.5v-2.7
		c0.3-0.5,0.5-0.7,0.7-0.7c0.5,0,0.8,0.9,0.8,2.6v1.4c0,3.3,0.1,6.4,0.2,9.3C36.1,47.3,36,49.1,36,51.4z M38.7,41.9v3.4
		c0,1.6-0.1,4-0.2,7.2l-0.5,0.2h-0.2c-0.4,0-0.6-0.5-0.7-1.4V31.6l0.2-1.2h1.2v3.4l0.2,0.5h-0.2C38.6,37.6,38.7,40.2,38.7,41.9z
		 M41,52.1c-0.4,0.3-0.6,0.5-0.7,0.5h-0.3c-0.5,0-0.7-2.1-0.7-6.2v-2.9c0-3.2,0.1-7.9,0.2-14.3c0.2,0,0.4-0.1,0.7-0.2l0.7,0.5
		c0,3.4,0.1,8.8,0.2,16.2C41.1,48.6,41,50.8,41,52.1z M62.9,52.6H42.4c-0.3,0-0.5-0.4-0.7-1.2c0.2-1.1,0.2-1.9,0.2-2.6v-5.2
		c0-3.2-0.1-8.1-0.2-14.5l0.2-0.5c0-0.6,1.8-1.1,5.3-1.4c2.5,0,5.2,1,8.1,2.9c2.8,3.1,4.3,6.1,4.5,8.8c1.4-0.3,2.2-0.5,2.6-0.5h0.7
		c3.5,0,5.7,2.2,6.7,6.7C69.9,49.3,67.6,51.8,62.9,52.6z"/>
	<path id="XMLID_324_" class="st1" d="M11.9,45.4c0,0.8-0.1,2-0.2,3.6h-0.5c0-0.1-0.1-1.1-0.2-3.1c0-0.7,0.1-1.7,0.2-3.1h0.5
		C11.9,44.2,11.9,45.1,11.9,45.4z"/>
	<path id="XMLID_323_" class="st1" d="M14.3,45.7v0.2c0,0.9-0.2,2.5-0.5,4.8v0.2h-0.5v-1.4c0-0.5-0.2-1.6-0.5-3.3l0.5-4.3v-0.7
		c0-0.3,0.2-0.4,0.5-0.5C14.2,43.2,14.3,44.8,14.3,45.7z"/>
	<path id="XMLID_322_" class="st1" d="M16.7,45.2v1.4c0,0.8-0.2,2.5-0.5,5v0.2h-0.5c0-1-0.2-2.9-0.5-5.7c0-0.5,0.2-2.5,0.5-6.2v-0.2
		h0.5C16.2,39.9,16.4,41.7,16.7,45.2z"/>
	<path id="XMLID_321_" class="st1" d="M19.1,45.7c0,0.4-0.2,2.6-0.5,6.4h-0.2l-0.5-0.3c0-0.7-0.1-2.5-0.2-5.5c0.2-3.9,0.2-6,0.2-6.4
		c0-0.3,0.2-0.4,0.5-0.5h0.2C18.6,39.8,18.8,41.9,19.1,45.7z"/>
	<path id="XMLID_320_" class="st1" d="M21.5,45.9L21,52.4h-0.2l-0.5-0.2c0-0.7-0.1-2.5-0.2-5.3c0-0.6,0.1-2.8,0.2-6.7
		c0-0.3,0.2-0.4,0.5-0.5H21L21.5,45.9z"/>
	<path id="XMLID_319_" class="st1" d="M23.8,45.4l-0.5,6.9h-0.2c-0.4,0-0.7-2.2-0.9-6.4c0.3-4.4,0.5-7.5,0.5-9.3
		c0-0.5,0.2-0.7,0.5-0.7h0.2C23.5,37.8,23.7,41,23.8,45.4z"/>
	<path id="XMLID_318_" class="st1" d="M26.2,45.9c-0.2,3-0.2,5.1-0.2,6.2c-0.3,0-0.4,0.2-0.5,0.5c-0.4,0-0.7-1.6-0.9-4.8
		c0.2,0,0.2-0.3,0.2-0.8v-0.2l-0.2-0.5c0.2,0,0.2-0.1,0.2-0.2v-0.7l-0.2-0.5c0.2,0,0.2-0.1,0.2-0.2v-5.2l0.2-1.2
		c-0.2,0-0.2-0.1-0.2-0.3c0.2-1.3,0.2-2.4,0.2-3.3v-0.9h0.5L26,34C26,36.2,26.1,40.2,26.2,45.9z"/>
	<path id="XMLID_98_" class="st1" d="M28.6,44.7v1.2c0,1.4-0.1,3.5-0.2,6.4l-0.5,0.2c-0.4,0-0.8-2.4-0.9-7.1
		c0.2-0.6,0.2-1.3,0.2-1.9v-3.6c0-1.6,0.1-4,0.2-7.2l0.5-0.2l0.5,0.2C28.5,38.3,28.6,42.3,28.6,44.7z"/>
	<path id="XMLID_62_" class="st1" d="M31.3,45.9c-0.2,2-0.3,3.9-0.3,5.7c-0.3,0.4-0.5,0.7-0.5,1h-0.2c-0.3,0-0.5-0.6-0.7-1.9h0.2
		L29.6,49v-3.6c0-3,0.1-7.4,0.2-13.1l0.5-0.2c0.2,0,0.5,0.3,0.7,0.9C31,37.8,31.1,42.1,31.3,45.9z"/>
	<path id="XMLID_37_" class="st1" d="M33.7,48.5l-0.2,1.2c0.2,0,0.2,0.1,0.2,0.2c-0.2,0-0.4,0.9-0.5,2.6h-0.5l-0.5-0.2
		C32.1,49,32,47,32,46.4l0.2-14.1h0.9c0.3,3.6,0.5,8.9,0.5,15.7V48.5z"/>
	<path id="XMLID_34_" class="st1" d="M36.3,45.9c-0.2,1.4-0.2,3.2-0.2,5.5c0,0.1-0.2,0.5-0.5,1.2h-0.2c-0.4-0.3-0.6-0.5-0.7-0.5
		c0-2.8-0.1-5-0.2-6.7c0.2-3,0.2-6.1,0.2-9.5v-2.7c0.3-0.5,0.5-0.7,0.7-0.7c0.5,0,0.8,0.9,0.8,2.6v1.4C36,40,36.1,43.1,36.3,45.9z"
		/>
	<path id="XMLID_24_" class="st1" d="M38.4,34.2c0.2,3.4,0.2,6,0.2,7.6v3.4c0,1.6-0.1,4-0.2,7.2l-0.5,0.2h-0.2
		c-0.4,0-0.6-0.5-0.7-1.4V31.6l0.2-1.2h1.2v3.4l0.2,0.5H38.4z"/>
	<path id="XMLID_23_" class="st1" d="M41.3,45.7c-0.2,2.9-0.2,5.1-0.2,6.4c-0.4,0.3-0.6,0.5-0.7,0.5h-0.3c-0.5,0-0.7-2.1-0.7-6.2
		v-2.9c0-3.2,0.1-7.9,0.2-14.3c0.2,0,0.4-0.1,0.7-0.2l0.7,0.5C41,32.9,41.1,38.3,41.3,45.7z"/>
	<path id="XMLID_21_" class="st1" d="M69.9,44.9c0,4.3-2.3,6.9-6.9,7.6H42.4c-0.3,0-0.5-0.4-0.7-1.2c0.2-1.1,0.2-1.9,0.2-2.6v-5.2
		c0-3.2-0.1-8.1-0.2-14.5l0.2-0.5c0-0.6,1.8-1.1,5.3-1.4c2.5,0,5.2,1,8.1,2.9c2.8,3.1,4.3,6.1,4.5,8.8c1.4-0.3,2.2-0.5,2.6-0.5h0.7
		C66.7,38.3,68.9,40.5,69.9,44.9z"/>
</g>
</svg>
