<?xml version="1.0" encoding="utf-8"?>
<!-- Generator: Adobe Illustrator 19.0.0, SVG Export Plug-In . SVG Version: 6.00 Build 0)  -->
<svg version="1.1" id="Layer_1" xmlns="http://www.w3.org/2000/svg" xmlns:xlink="http://www.w3.org/1999/xlink" x="0px" y="0px"
	 viewBox="0 0 80.6 80.6" style="enable-background:new 0 0 80.6 80.6;" xml:space="preserve">
<style type="text/css">
	.st0{fill:#BF4B4F;}
	.st1{fill:#FFFFFF;}
</style>
<g id="twitter">
	<path id="XMLID_97_" class="st0" d="M67.2,10.4c-8.3-6.8-17-10.2-25.9-10.2h-1.6c-9.5,0-18.5,3.7-27.1,11.2
		c-8.3,8.8-12.4,18.5-12.4,29c0,9.9,3.7,19,10.9,27.3c8.6,8.5,18.3,12.8,29.3,12.8h0.2c2.9,0,6.6-0.5,10.9-1.6
		c9.4-3,16.9-8.4,22.3-16.2c4.4-7.7,6.6-14.5,6.6-20.2v-3.8C80.5,28.8,76.1,19.4,67.2,10.4z M61.7,29.9c0,0.3-1.3,1.6-3.8,4.1v1.6
		c0,4.4-1.7,9-5.2,13.8c-4.8,5.6-10.7,8.3-17.6,8.3c-3.3,0-7.2-1-11.6-3.1v-0.5h1.4c3.1,0,6.2-1,9.3-2.9v-0.7c-2.8,0-5.1-1.7-6.9-5
		v-0.5l1.2,0.2h1.2l0.5-0.2c-4-2.2-5.9-4.8-5.9-7.8V37c1.1,0.6,2.2,0.9,3.3,0.9v-0.2c-2-2-3.1-3.8-3.3-5.5v-2.8
		c0.6-1,0.9-1.7,0.9-1.9h0.3l3.3,3.1c3.6,2.8,7.8,4.6,12.8,5.2c0.3,0,0.5-0.1,0.5-0.5v-1.9c0-1.3,0.2-2.3,0.7-3.1
		c1.6-3,3.8-4.5,6.4-4.5H51c1.4,0.2,3,1,4.8,2.4h0.7c0.5,0,1.9-0.6,4.3-1.7H61v0.2c-0.7,1.5-1.8,2.7-3.3,3.6l0.2,0.5
		c1.6-0.3,2.9-0.7,3.8-1.2V29.9z"/>
	<path id="XMLID_19_" class="st1" d="M61.7,29.6v0.2c0,0.3-1.3,1.6-3.8,4.1v1.6c0,4.4-1.7,9-5.2,13.8c-4.8,5.6-10.7,8.3-17.6,8.3
		c-3.3,0-7.2-1-11.6-3.1v-0.5h1.4c3.1,0,6.2-1,9.3-2.9v-0.7c-2.8,0-5.1-1.7-6.9-5v-0.5l1.2,0.2h1.2l0.5-0.2c-4-2.2-5.9-4.8-5.9-7.8
		V37c1.1,0.6,2.2,0.9,3.3,0.9v-0.2c-2-2-3.1-3.8-3.3-5.5v-2.8c0.6-1,0.9-1.7,0.9-1.9h0.3l3.3,3.1c3.6,2.8,7.8,4.6,12.8,5.2
		c0.3,0,0.5-0.1,0.5-0.5v-1.9c0-1.3,0.2-2.3,0.7-3.1c1.6-3,3.8-4.5,6.4-4.5H51c1.4,0.2,3,1,4.8,2.4h0.7c0.5,0,1.9-0.6,4.3-1.7H61
		v0.2c-0.7,1.5-1.8,2.7-3.3,3.6l0.2,0.5C59.6,30.5,60.8,30.1,61.7,29.6z"/>
</g>
</svg>
