<?xml version="1.0" encoding="utf-8"?>
<!-- Generator: Adobe Illustrator 19.0.0, SVG Export Plug-In . SVG Version: 6.00 Build 0)  -->
<svg version="1.1" id="Layer_1" xmlns="http://www.w3.org/2000/svg" xmlns:xlink="http://www.w3.org/1999/xlink" x="0px" y="0px"
	 viewBox="0 0 80.6 80.6" style="enable-background:new 0 0 80.6 80.6;" xml:space="preserve">
<style type="text/css">
	.st0{fill:#BF4B4F;}
	.st1{fill:#FFFFFF;}
</style>
<g id="youtube">
	<path id="circle" class="st0" d="M80,33.1c-0.6-6.1-4.1-12.9-10.3-20.5C60.8,4.2,51.4,0,41.5,0h-2.4c-2.8,0-6.1,0.5-10,1.6
		C18.8,5.1,11.2,10.8,6.2,18.8C3.1,23.6,1,29.9,0,37.7c0.2,0,0.1,0.1,0.1,0.3c-0.2,0.3-0.4,0.6-0.4,0.9v0.5c0,11,3.9,20.8,11.3,29.1
		C19.9,76.7,29.6,81,39.8,81h0.9c2.8,0,6.7-0.8,11.7-2.1c9.8-3.4,17.5-9.5,22.8-18.2c3.6-7.1,5.5-13.4,5.5-18.7v-3.3
		C80.8,37.8,80.4,36,80,33.1z"/>
	<path id="yt" class="st1" d="M20.9,27.9c-0.2,0.4-0.5,0.9-0.7,1.7c-0.2,0.5-0.4,1.2-0.6,2.2c-0.3,2.6-0.4,4.9-0.4,6.9V42
		c0,1.7,0.1,3.7,0.3,5.9c0.1,0.7,0.2,1.4,0.3,2c0.2,0.9,0.5,1.6,0.8,2.1c0.3,0.9,1,1.6,2.1,2.1c0.3,0.2,0.7,0.3,1.1,0.5
		c0.4,0.1,0.9,0.2,1.6,0.3c0.5,0.1,1.9,0.2,4,0.2c5.1,0.2,8.8,0.2,11.1,0.2c2.1,0,4.8,0,8.1-0.1c4.4-0.2,6.9-0.3,7.5-0.5
		c0.6-0.1,1.2-0.3,1.7-0.5c0.3-0.2,0.6-0.3,0.9-0.5c0.3-0.2,0.6-0.5,0.9-0.9c0.3-0.5,0.6-1,0.8-1.7c0.3-0.5,0.5-1.2,0.6-2.1
		c0.3-2.6,0.5-4.9,0.5-7v-3.3c0-2.1-0.2-4.4-0.5-6.9c-0.2-1-0.3-1.6-0.5-2c-0.3-0.8-0.7-1.5-1.1-2.1c-0.4-0.4-0.6-0.6-0.7-0.7
		c-0.3-0.2-0.7-0.4-1.1-0.6c-0.3-0.1-0.7-0.2-1.1-0.3c-0.6-0.1-1.6-0.2-3-0.3c-4.3-0.2-8.6-0.3-13.1-0.3c-2.3,0-4.9,0-7.8,0.1
		c-2.7,0.1-4.9,0.2-6.5,0.3c-0.9,0-1.5,0.1-1.9,0.2c-0.8,0.2-1.6,0.5-2.2,0.9C21.5,27.3,21.2,27.6,20.9,27.9z M35.9,33.9
		c0.2,0.1,0.2,0.1,0.2,0.1s3,1.6,9.1,4.8c1.4,0.7,2.1,1.1,2.2,1.1l-2,1c-0.1,0-3.3,1.6-9.6,4.9V33.9z"/>
</g>
</svg>
