<svg xmlns="http://www.w3.org/2000/svg" viewBox="0 0 1205.1 376.3"><path d="M730.4 143.9c-4.7 7.5-10.2 14.6-14 22.5-11.5 23.8-22.2 48.1-33.6 72-3.8 8-8.8 15.6-13.6 23.1-.9 1.5-3.6 1.9-5.4 2.8-.7-1.7-2-3.5-2-5.2.1-7.9 1-15.9 1-23.8-.2-36.2-10.4-69.5-31.8-98.5-10-13.5-23.7-24.3-35.7-36.4-.3-.3-.9-.4-1.8-.7 3.4 14 7.3 27.4 10 41.1 3.2 16.3 5.9 32.7 7.9 49.2 1.8 15 3.1 30.1 3.3 45.2.2 21-1.6 42.1-9.1 61.7-9.3 24.3-24.6 43.8-51.4 50.8-24.5 6.4-47.7-9.8-52.7-33.8-1.9-9.3-.5-19.4-.1-29.1.1-1.6 3-4.6 4.2-4.4 2.6.4 3.4 2.4 2.6 5.8-3.3 15.2-2.3 29.7 7.3 42.9 6.3 8.7 22.9 15.1 33.3 13.1 13-2.5 24.2-8.2 33.1-17.7 8.9-9.4 14.5-21.2 17.2-33.7 4-18.4 4.9-37.2 2.5-56-2-16-3.4-32.1-5.8-48.1-2.7-18.4-6.2-36.7-9.4-55.1-1.7-9.5-3.5-19-5.4-29-5.6 2.5-10.9 4.9-16.4 7.2-16.1 6.9-32.9 10.5-50.4 11.9-25.1 2-49.1-3.2-72.8-10-22-6.3-43.9-13.5-66.1-19.3-10-2.6-20.6-3.2-30.9-4.3-17.2-1.9-33.8 1-49.8 7.7-9.4 3.9-15.5 11.4-22.1 18.5-1.6 1.7-3 3.7-4.6 5.4-2.1 2.3-4.1 4.3-7.5 1.6-3.5-2.9-3.6-6.4-1.1-9.2 5.9-6.8 11.9-13.7 18.8-19.5 15.3-12.9 34.1-15.9 53.4-16.9 24.8-1.2 48.3 4.5 71.8 11.8 21.9 6.8 43.8 13.9 66.2 18.9 36.7 8.3 72.1 3.2 105.5-14.6 2.8-1.5 3.5-3 2.7-6.1-3.9-14.9-6.2-30.1-5.5-45.4.5-9.9 5.7-18.4 14-24.5 1.4-1 2.8-2.1 4.4-3.4 10.3 2.1 15 14.6 15.3 23.8.6 17.2-4.4 33.3-11 48.8-1.8 4.3-.7 6.3 2.6 8.3 14.6 8.6 27.4 19.5 39.3 31.5 16.4 16.6 27.5 36.2 31.4 59.1 2.4 14.5 2.7 29.3 3.5 44 .3 5.3-.9 10.6-.3 16.5.9-1.1 2-2.2 2.6-3.4 7.5-16.2 14.8-32.5 22.4-48.7 9.5-20.4 19.1-40.8 34.4-57.7 5.8-6.4 7-14.3 8.9-22 6.4-25.7 17.9-48.9 33.3-70.3 3.4-4.7 8.2-8.5 12.8-12.4 2.9-2.4 6.2-5.2 10.4-2.3 3.9 2.7 3.4 6.8 3 10.7-1.5 19-11.2 34.6-21.3 49.7-8 12-18 22.6-26.8 34.1-1.8 2.3-3 5.5-3.3 8.4-1.7 16.6-3.4 33.3-4.5 50-.9 13.1-1.8 26.3-1 39.4 1.5 25.8 3.2 51.7 11.1 76.5 2.9 9.1 6.1 18.3 13.9 24.9 6.5 5.5 17.1 5.8 23.7.7 11.8-9.2 20.2-21.1 26.8-34.2 8.6-17.1 16.4-34.6 23.7-52.3 3.2-7.6 4-16.2 6.7-24.1 2.9-8.4 9.1-14.7 16.4-19.5 8.4-5.5 19.4-2.4 24.7 6.4.8 1.4 1.6 2.8 2.4 4.3 5.7-4.3 11.1-2.6 13.2 4.1.8 2.6 1.1 5.4 1.1 8.2.5 13.9.7 27.7 1.2 41.6.1 2.5.7 5.1 1.5 7.5 3.5 9.8 13.9 11.5 21.9 2.7 6.2-6.8 11.9-14.4 16.5-22.4 6.4-11.2 11.6-23.1 17.3-34.6-19.4-14.8-18-40.9-7.9-55.1 5-7.1 11.8-10.9 20.9-9.7 8.9 1.1 16.2 12.9 13 23.1-4.1 12.8-9.2 25.2-13.8 37.5 3.3 2.7 7.8 5.5 11.1 9.4 2.3 2.8 4.2 7 4.1 10.5-.2 12.7-1.7 25.4-1.8 38.1 0 6.1 1.6 12.3 3.1 18.2 2.8 10.8 10.4 11.8 19.7 6.9 7.8-4.1 13.6-11 17-18.8 8.4-19.4 15.8-39.2 23.4-58.9 1.2-3.1.1-7.3 1.6-10.1s5.1-6.4 7.6-6.3c3.2.2 6.1 3.7 5.6 8.2-.9 9.2-2.1 18.3-2.1 27.5 0 4.9 1.4 10.1 3.5 14.6 2.8 6 7.7 7.9 13.8 5.7 14.6-5.5 25.6-15.2 31.5-29.8 3.6-9 8.5-16.9 17.1-21.9 5.9-3.4 11.9-3.9 16.8 1.6 2.8 3.2 3.1 8.2-.4 10.6-4.5 3.1-9.7 5.6-14.9 7.2-3.2 1-5.4 1.8-5.4 5.4-.3 9.3-1.4 18.6-.5 27.8.7 6.8 7 11.9 16.2 9.8 18.3-4.3 30.5-16.4 41.4-30.3 5.4-6.8 9.6-14.6 14.5-21.8.9-1.3 3.1-1.7 4.7-2.5.3 1.9 1.6 4.4.9 5.7-11.2 20.1-24.8 38.2-45.3 49.8-9 5.1-18.6 8.3-29.4 5.6-11.3-2.9-17.9-12-19.2-26.5-6.9 4.6-13.9 10-21.5 14.1-9.4 5-21.8 3.4-26.1-3.1-4.1-6.2-7.2-12.9-10.6-19-2.9 7-6.3 15.1-9.7 23.3-5.6 13.4-12.3 26.2-23.9 35.3-13.2 10.3-25.2 9.4-34.7-3.5-7.9-10.8-11-23.1-8.5-36.7 1.7-9.3 2.8-18.9 3.3-28.4.3-5.4-3.2-9.1-9.3-10.5-3.2 6.9-6.1 13.9-9.7 20.7-7.3 13.8-13.9 28-25.9 38.7-9.6 8.6-20.4 10.3-28.8 3.5-8.2-6.6-11.8-15.8-13-25.9-1-8.1-1.1-16.2-1.6-24.4-5.1 7.1-9.8 14.6-15.5 21.2-5.1 5.9-10.7 12.7-20 9.7-4.1-1.3-7.4-4.8-11.4-7.6-2.2 5-4.7 10.9-7.5 16.8-7.4 15.8-15.1 31.6-26.1 45.3-4.9 6.1-10.7 11.8-16.7 16.8-11.6 9.7-26.6 6.4-36.8-2.9-14.2-13-21-29.9-25-48-3-13.3-4.7-27.1-5.6-40.7-.9-14.7-.9-29.5 0-44.2.9-14.2 3.5-28.3 5.2-42.5.2-1.6 0-3.2 0-4.8-.4 0-.9-.2-1.4-.5zm160.7 63.7c-5.5 1.4-5.7-2.5-6.7-4.6-3.8-7.6-12.1-10.9-17.3-1-2.8 5.3-5.4 10.8-7 16.5-2.4 8.9-4.9 18.1-1.9 27.4.5 1.5 2 3.4 3.3 3.8 1.2.3 3.5-.8 4.4-2 6.8-9.4 13.5-18.8 19.8-28.4 2.3-3.6 3.6-7.8 5.4-11.7zm-140-98.4c.9.4 1.8.9 2.7 1.3 8.9-13.1 18.6-25.7 26.5-39.4 5.6-9.8 8.9-21.1 12.8-31.8.6-1.5-.9-3.7-1.5-5.6-1.5.7-3.3 1.1-4.6 2.2-1.8 1.5-3.7 3.2-4.8 5.3-6.5 11.3-13.6 22.5-19.1 34.3-4.9 10.8-8 22.4-12 33.7zM968.6 203c3-6.2 6.7-12 8.7-18.3 2.6-8.2 4.5-16.8 5.5-25.4.7-6-3.9-9.2-9-6.6-4.1 2.1-8.6 5.3-10.6 9.2-3 5.8-5.5 12.7-5.5 19.1 0 8.3.9 17.4 10.9 22zM589 81.2c.4 0 .7-.1 1.1-.1 1.2-5.6 1.6-11.5 3.8-16.6 4.1-9.5 6.2-19.3 5.2-29.5-.3-3.2-1.9-6.7-3.9-9.3-3.6-4.6-9.1-3.7-10.6 1.9-1.2 4.6-1.2 9.6-1 14.4.5 9.4 1.2 18.7 2.3 28 .5 3.8 2.1 7.5 3.1 11.2zm554.2 122.3c-6.1-.3-8 1.3-10.3 8.9 9-1.6 10.9-3.3 10.3-8.9zM79.7 216.2c6.4-4.4 13.6-7.9 19-13.3 7.5-7.4 13.8-15.9 20.1-24.3 2.1-2.8 2.8-6.5 4.2-9.9.7-1.7 1.1-3.5 1.9-5.1 1.8-3.2 3.6-6.9 8.1-6.2 3.6.6 5.9 6.5 5.2 11-1.2 8.9-2.2 17.8-3.1 26.8-.2 1.8.6 3.6.9 5.5.6.2 1.3.4 1.9.6 3.6-5.3 7.5-10.4 10.8-15.9 4.6-7.7 8.7-15.6 13.1-23.4 4.4-7.8 8.2-8 12.8-.3 6.1 10.2 8.8 21.5 10.6 33.1 1.2 7.6 1.8 15.3 2.9 24.7 10.4-9.1 20.9-17 29.7-26.6 8.5-9.3 15-20.3 22.5-30.6 4.3 3.7 2.3 6.8.8 9.9-9.1 19.8-24.8 33.8-42 46.2-3.2 2.4-6.7 4.4-9.7 7.1-1.2 1.1-1.9 3.4-1.9 5.2.1 30.7-5.3 60.4-15.6 89.3-6.4 18-14.8 34.7-29.3 47.7-11.8 10.7-29.5 13.1-40.8-3.7-8-11.9-10.7-25-9.4-39.5 2.1-24.9 15.1-43.4 31.9-60.3 12.6-12.7 27-22.8 42.1-32.1 3.3-2 4.6-4.3 4.5-8.3-.4-17.7-1.4-35.2-5.8-52.6-5.6 8.7-11 17.4-16.7 25.8-2.2 3.2-4.9 6.3-7.9 8.8-4.9 4.2-10.2 3.1-13.2-3-2.4-4.9-3.9-10.3-5.6-15.2-3.8 4.2-8.1 9.2-12.6 13.9-9 9.6-19.1 17.6-32 21.6-1 .3-2 1.6-2.5 2.7-3.5 8-8.2 15.3-15.6 20-8 5.1-15.8 5.9-22-1.4-6.5-7.7-3.5-20.4 6.2-23.4 6.4-2 13.2-2.4 19.8-3.6.5-.1 1-.4 1-.4 3.3-12.5 2-24.4-1.6-36.2-2.7-8.8-9.4-9.7-15.9-3-11.3 11.5-15 26.3-18.6 41.2-1.2 5-1.2 10.2-2.5 15.1-.5 2.1-3.5 5.5-4.5 5.2-2.7-.8-6.4-2.7-7.2-5-3.6-9.9-7-19.9-9.1-30.2C0 181.2-.7 157.9 0 134.6c.6-21 4-41.5 9.8-61.6 3-10.4 5.8-20.9 9.9-30.8 2.9-7 7.6-13.3 11.8-19.7 2.9-4.5 5.9-9.1 9.6-12.9 7.7-7.7 17.7-11 28.2-9.3C80 2.1 85.6 10.7 89 20.5c7.5 21.3 4 42.1-2.7 62.8-7.8 24.3-21.9 44.5-41.2 61.1-8 6.9-17.1 12.4-25.8 18.4-2.7 1.9-4.2 3.2-3.3 7.4 1.5 6.6.9 13.6 1.6 20.4.8 8 1.9 15.9 2.9 24.6 4.5-11.2 8.1-21.6 13-31.3 2.7-5.2 7.6-9.4 11.8-13.6 8.6-8.5 24.9-3.1 30 10.3 3.5 9.2 5 18.7 2.6 28.6-.4 1.7-.1 3.7-.1 5.5 1 .5 1.4 1 1.9 1.5zm-65-59.6c.9.5 1.8 1 2.6 1.6 8.2-6.2 17.2-11.7 24.5-18.8 15.3-14.8 28.5-31.4 35.7-51.9 7.1-20.1 11.6-40.4 6.4-61.8-2-8.3-6-15.3-14.7-17.6-8.9-2.4-15.3 3.5-20.6 9-8.7 9-12.9 21.1-16.9 32.6-6.3 18.1-11.1 36.7-12.6 55.9-1.4 16.9-3 33.9-4.4 51zm156.8 80c-17.6 11.1-33.1 21.6-45.9 35.6-16.6 18.1-27.7 38.3-26.3 63.9.5 9 2.6 17.5 8.1 24.5 8.1 10.3 18.8 12.1 29.1 2.2 10.5-10 15.9-23.2 19.6-36.7 4.9-17.5 8.7-35.4 12-53.4 2.1-11.3 2.3-23 3.4-36.1zM63 224c-7 1.5-12.6 2.4-17.9 4.1-3.6 1.1-5 6.9-3.3 10.4 1.8 3.8 6.4 5.5 10.2 3.8 7.1-3.2 8.3-10.1 11-18.3z"/><path d="M1072.2 177.2c.1 3.7-3.9 7.9-7.6 7.9-3.1 0-6.8-4.2-7-8-.2-5 2.1-7.4 7.1-7.6 4.2 0 7.4 3.3 7.5 7.7z"/></svg>