<svg xmlns="http://www.w3.org/2000/svg" viewBox="0 0 80.6 80.6"><path d="M79.9 33.1c-.6-6.1-4-12.9-10.3-20.5C60.8 4.2 51.4 0 41.5 0h-2.4c-2.8 0-6.1.5-10 1.6C18.8 5 11.2 10.8 6.2 18.8 3.1 23.6 1 29.9 0 37.7c.2 0 .2.1.2.3-.1.2-.2.5-.2.9v.5c0 11 3.7 20.6 11.2 28.9 8.8 8.3 18.4 12.4 28.6 12.4h.9c2.8 0 6.7-.6 11.7-1.9 9.8-3.4 17.4-9.4 22.7-18.1 3.6-7.1 5.5-13.3 5.5-18.6v-3.3c0-1-.2-2.8-.7-5.7zm-28.4-9.5h-4.8c-2.9.3-4.3 1.6-4.3 4.1v5.7c0 .3.2.5.5.5H51v.5c-.5 5.2-.9 7.8-1.2 7.8h-6.9c-.3 0-.4.2-.5.5v22.2H34l-.1-1.4V42.9c-.2-.5-.5-.7-.7-.7h-4.1v-8.3h4.1c.5-.3.7-.5.7-.8l-.2-7.4c.3-1.7.6-3 .9-3.8 1.7-4.1 5.3-6.2 10.7-6.2h1.2c3.3 0 5 .2 5 .7v7.2z" fill="#bf4b4f"/><path d="M42.5 27.7v5.7c0 .3.2.5.5.5h8.1v.5c-.5 5.2-.9 7.8-1.2 7.8H43c-.3 0-.4.2-.5.5v22.2H34l-.1-1.4V42.9c-.2-.5-.5-.7-.7-.7h-4.1v-8.3h4.1c.5-.3.7-.5.7-.8l-.2-7.4c.3-1.7.6-3 .9-3.8 1.7-4.1 5.3-6.2 10.7-6.2h1.2c3.3 0 5 .2 5 .7v7.1h-4.8c-2.8.3-4.2 1.7-4.2 4.2z" fill="#fff"/></svg>