<svg xmlns="http://www.w3.org/2000/svg" viewBox="0 0 1198.8 83.4"><path d="M0 4.5c2.3-.3 4.5-.8 6.7-.7 2.9.1 3.1 2.4 3.1 4.7v36c0 10.5.1 21-.1 31.5 0 1.8-.7 5.1-1.6 5.3-2.6.5-5.8 1.6-8.1-1.3V4.5zm882.2 37.6c.1 19.6-13 35.3-28.1 39.7-14 4-25.9.3-36.3-10.3-7.9-8.1-10.8-17.9-12.2-28.6-2.3-16.9 15.5-39.8 32.1-41.8 23.5-2.8 39.1 13 43.3 31.7.7 3.1.8 6.2 1.2 9.3zm-11.7.3c.5-12-2.3-19.6-7.5-26.7-10-13.5-27-13.9-37.3 0-7.2 9.8-8.8 20.9-7.6 32.3 1 9.5 4.1 18.4 12.1 25.1 8.9 7.4 24.7 6.1 32.1-3.9 6-7.9 8.6-16.8 8.2-26.8zM439.4 4.5c12.2 0 24.1-1.3 35.5.4 11.5 1.6 17.5 8.9 17.8 19.4.3 9.9-7.9 18.4-16.9 20.4-2.4.5-4.8.8-7.7 1.2 2.4 3.6 4.6 7 7 10.4 5 7 10.1 14 15.1 21 1.7 2.4.9 4.3-2 4.3-4.1.1-7.6.4-10.6-4.4-7.2-11.4-15.5-22-23.3-32.9-.7-1-1-2.2-1.7-3.7 1.9-.3 3.6-.6 5.2-.7 4.4-.2 8.9.6 13.1-.4 11.8-2.9 13.9-16.8 7.4-25-3.5-4.4-8.4-5.8-13.8-5.9-4.9-.1-9.8 0-15.4 0v5.8c0 21.1-.1 42.1.1 63.2 0 3.5-1.6 4.1-4.5 4.1-2.6 0-5.4.4-5.4-3.6.1-24.6.1-49.3.1-73.6zM120.8 82.9c-16.1-21.1-32.3-42.2-49.1-64.3-.1 2.6-.2 4-.2 5.4 0 17.5 0 35-.1 52.5 0 1.6-.6 3.7-1.7 4.6-2.3 1.9-5.3.3-5.5-2.8-.2-3.3-.1-6.6-.1-9.8 0-19.8 0-39.7.1-59.5 0-1.7.8-5 1.3-5 2.9 0 7-.4 8.6 1.4 4.8 5 8.7 10.9 13 16.4 9.2 12 18.5 24 28.8 35.8V8.2c0-2.2-.7-4.7 3.2-4.8 3.7-.1 3.4 2.1 3.4 4.6v73.9c-.6.4-1.2.7-1.7 1zm864.4-24.1c.1-2.5.2-3.8.2-5.1v-46c0-2.5.1-4.2 3.4-4.2 3.1 0 3.2 1.7 3.2 4 0 19 .2 38-.1 56.9-.1 5.1-1.8 10.2-3 16.6-16.4-21.4-32-41.6-48.4-63-.1 2.5-.2 3.9-.2 5.3v54.2c0 2.5-.1 4.3-3.4 4.2-2.2-.1-3.2-.8-3.2-3.1.1-23.9 0-47.9.1-71.8 0-1 1-2.9 1.5-2.9 2.5 0 6-.4 7.5 1.1 4.5 4.5 8.3 9.8 12.3 14.9 6.8 8.8 13.6 17.6 20.4 26.5 2.2 2.8 4.2 5.8 6.4 8.6.6 1 1.6 2 3.3 3.8zM576.3 1.2c10.6 26.6 21.1 53.2 32 80.4-2.8 0-5 .5-6.8-.1-1.9-.6-4.3-1.9-5.1-3.6-2.4-5.1-4.1-10.5-6.1-15.7-1.1-2.8-2.9-4.4-6.3-4.3-6.8.2-13.6 0-20.5-.2-3.4-.1-5.5 1.2-6.8 4.5-2 5.3-4.2 10.4-6.5 15.6-.5 1.1-1.2 2.6-2.2 3-1.3.5-3 .1-4.5.2 0-1.3-.3-2.7.1-3.8 4.2-10.9 8.5-21.7 12.8-32.5 5.3-13.2 10.6-26.3 16-39.4.6-1.4 1.6-2.7 2.4-4 .5-.1 1-.1 1.5-.1zm9.4 49.7c-4-10.1-7.8-19.7-12.1-30.3-4.3 10.7-8.2 20.4-12.1 30.3h24.2zM1041.3 80c7.1-17.9 14.2-35.8 21.4-53.7 2.9-7.3 5.9-14.6 9-21.9.6-1.4 1.8-2.5 3.2-4.5 11 27.8 21.5 54.3 32.1 81-8.8 1.7-10.3.9-13.1-6.4-1.7-4.5-3.5-9-5.3-13.5-1-2.5-2.7-3.4-5.4-3.4-7 .2-14 .3-20.9 0-3.7-.1-5.6 1.7-6.8 4.6-2.2 5.2-4.1 10.5-6.2 15.7-1.7 4.2-3.8 4.7-8 2.1zm43.2-28.8c-4-10.1-7.8-19.9-12.1-30.6-2.3 6.1-4.1 10.9-6.1 15.7-2 4.9-4.1 9.7-6.3 14.9h24.5zm-813.5-9c0-11.2.1-22.4-.1-33.6 0-3.8 1.4-5.1 5.1-5 7.5.2 15-.1 22.6.1 9.2.3 16.7 3.9 21.7 11.9 3.9 6.3 1.1 19.6-4.6 24.1-5.5 4.2-11.6 5.9-18.4 5.8-4.1-.1-8.2.2-12.3-.1-3.4-.2-4.2 1.2-4.1 4.3.2 9.3-.1 18.6.1 27.9.1 3.5-1.3 4.1-4.3 4.1-3-.1-5.7.2-5.6-4.2 0-11.8-.1-23.5-.1-35.3zm20.5-2.4h4.9c7.7 0 14.1-5.2 14.8-11.7 1-9.7-3.3-17.1-11.4-18.6-4.9-.9-10-.6-15-1-3-.2-4.2.8-4.1 3.9.2 5.6.1 11.2.1 16.8 0 10.6 0 10.6 10.7 10.6zM211.7 16c-3.6-5.3-7.4-9.3-14.1-9.2-7.2 0-12 5.6-12.9 12.4-1 7.6 2.2 12.6 9.2 15.8 6 2.8 11.8 6.1 17.5 9.6 7.3 4.5 8.1 12 6.7 19.2-3 16.4-21.9 25-36.3 16.2-2.4-1.5-4.3-4-6.2-6.2-1.6-1.8-1.5-3.7.6-5.1 2.1-1.4 3.2.1 4.3 1.8 4.9 7.1 12.6 9 20 5.6 6.2-2.9 8.1-11.9 7-17.1-1.1-4.9-3.9-8.3-8.6-10.5-5.1-2.4-10-5.3-15-7.8-13.6-6.9-13-26.3-.6-34.4 10.3-6.7 22-6.7 30.7 3.1 4 4.4 0 4.8-2.3 6.6zm459.2-6.8h-17.6c-.8-5.5-.7-5.6 4.2-5.6h37.4c1.9 0 3.9-.3 4 2.7.1 3.2-1.9 3.1-4.1 3-3.3 0-6.6.2-9.8-.1-3.3-.2-4.2 1-4.2 4.2.1 20.8.1 41.6.1 62.4 0 5.4-2.7 7.5-7.7 5.4-1.2-.5-2-3-2.1-4.6-.1-19.3-.1-38.6-.1-57.9-.1-2.8-.1-5.8-.1-9.5zm498.4 65.9h24.8c2.4 0 4.6.3 4.7 3.1.1 3.2-2.3 3.4-4.8 3.4-9.8 0-19.7-.1-29.5 0-3.8.1-5-1.5-5-5.1.1-22.7.1-45.4 0-68.1 0-3.5 1-5.2 5-5.2 3.7 0 5 1.1 4.9 4.9-.2 20.6-.1 41.3-.1 61.9v5.1zm-794-32.9c0-11.5.1-23-.1-34.4 0-3.3 1-4.4 4.2-4.2 3.1.2 5.7.1 5.7 4.4-.1 23.1-.1 46.2 0 69.3 0 4.2-2.3 4.3-5.5 4.4-3.6.1-4.4-1.5-4.4-4.6.1-11.6.1-23.2.1-34.9zm373.6-.4c0-11.2.1-22.4-.1-33.6 0-3.2.6-4.8 4.3-4.6 3.2.2 5.6.3 5.6 4.5-.1 23-.1 45.9 0 68.9 0 4.1-1.9 4.8-5.5 4.8-4 0-4.3-2.1-4.3-5.1.1-11.7 0-23.3 0-34.9z"/></svg>