<svg version="1.1" id="Layer_1" xmlns="http://www.w3.org/2000/svg" x="0" y="0" viewBox="0 0 80.6 80.6" xml:space="preserve"><style>.st0{fill:#bf4b4f}.st1{fill:#fff}</style><g id="insta"><path id="XMLID_36_" class="st0" d="M77 23.7c-2.6-6-6.9-11.4-12.8-16C56.4 2.6 49.4.1 43.2.1h-5.8c-7.1 0-15 3.3-23.6 9.8C4.6 18.9 0 29 0 40.2 0 47 1.9 53.9 5.7 60.9 14.6 74 26 80.5 40.1 80.5c11.2 0 21.1-4.1 29.6-12.4 7.3-8.8 11-17.6 11-26.5v-3.3c-.1-4-1.3-8.8-3.7-14.6zM61.8 48.8c0 5-1.4 8.6-4.1 10.7-1.2 1.8-5.8 2.6-13.8 2.6-10.5.3-16.7-.1-18.6-1.2-4.3-2.3-6.4-6.8-6.4-13.6V34.9c0-2.6.2-4.8.5-6.7 2.1-6 6.2-9.1 12.4-9.1h17.4l3 .2 3 1c4.4 2 6.7 6.1 6.7 12.4v16.1z"/><path id="XMLID_44_" class="st1" d="M55.1 20.4l-3-1-3-.2H31.7c-6.2 0-10.3 3-12.4 9.1-.3 1.8-.5 4.1-.5 6.7v12.4c0 6.8 2.1 11.3 6.4 13.6 1.9 1.1 8.1 1.5 18.6 1.2 8 0 12.6-.9 13.8-2.6 2.7-2.2 4.1-5.7 4.1-10.7v-16c.1-6.4-2.2-10.5-6.6-12.5zm3.1 29.1c-.8 5.9-3.3 8.8-7.4 8.8h-6.9c-3.2 0-6.6.1-10.2.2-6 0-9.5-1.9-10.5-5.7-.3-2.1-.5-5.3-.5-9.5V38c0-7.9.6-11.9 1.9-11.9 1.3-2 3.9-3.1 7.8-3.1h16.7c6 0 9.1 3.2 9.1 9.5v17z"/><path id="XMLID_55_" class="st0" d="M49.1 23H32.4c-4 0-6.6 1-7.8 3.1-1.3 0-1.9 4-1.9 11.9v5.3c0 4.3.2 7.4.5 9.5 1 3.8 4.5 5.7 10.5 5.7 3.6-.2 7-.2 10.2-.2h6.9c4.1 0 6.6-2.9 7.4-8.8V32.6c0-6.4-3-9.6-9.1-9.6zm2.4 17.7c0 5.2-2.9 8.9-8.6 10.9h-4.8c-5.9-2-8.8-5.6-8.8-10.7.2-2.1.4-3.3.7-3.6 1.9-5.1 5.4-7.6 10.3-7.6h.2c2.2 0 4.4.7 6.4 2.2 3 2.6 4.5 5.3 4.5 8.3v.5zm.5-8.8c-1.1 0-1.9-.8-2.6-2.4 0-1.4.8-2.4 2.4-2.9 1.6 0 2.5 1 2.9 2.9-.8 1.6-1.6 2.4-2.7 2.4z"/><path id="XMLID_20_" class="st1" d="M54.6 29.5c-.7 1.6-1.6 2.4-2.6 2.4-1.1 0-1.9-.8-2.6-2.4 0-1.4.8-2.4 2.4-2.9 1.5 0 2.5.9 2.8 2.9z"/><path id="XMLID_41_" class="st1" d="M47 31.9c-2-1.4-4.2-2.2-6.4-2.2h-.2c-4.9 0-8.3 2.5-10.3 7.6-.3.3-.5 1.5-.7 3.6 0 5.1 2.9 8.7 8.8 10.7H43c5.7-2 8.6-5.7 8.6-10.9v-.5c-.1-3-1.6-5.8-4.6-8.3zm-6.4 16.2c-3.2 0-5.5-1.6-6.9-4.8-.2-.3-.4-1.1-.5-2.4.6-4.9 3-7.4 7.2-7.4h.2c3.4 0 5.7 1.8 6.9 5.5.2.2.2.8.2 1.7-.7 4.9-3.1 7.4-7.1 7.4z"/><path id="XMLID_22_" class="st0" d="M47.7 40.7c-.8 4.9-3.1 7.4-7.2 7.4-3.2 0-5.5-1.6-6.9-4.8-.2-.3-.4-1.1-.5-2.4.6-4.9 3-7.4 7.2-7.4h.2c3.4 0 5.7 1.8 6.9 5.5.2.2.3.8.3 1.7z"/></g></svg>