<svg version="1.1" id="Layer_1" xmlns="http://www.w3.org/2000/svg" x="0" y="0" viewBox="0 0 80.6 80.6" xml:space="preserve"><style>.st1{fill:#fff}</style><g id="soundcloud"><path id="XMLID_359_" d="M75.8 21.1c-8.7-14-20.4-21-35-21-11.7 0-21.7 4.3-30 12.9C3.6 21.4 0 30.5 0 40.2c0 7.2 2.1 14.5 6.4 21.9 8.9 12.2 20.1 18.4 33.4 18.4 10.9 0 20.5-3.7 28.6-11.2 8.1-8.9 12.2-18.1 12.2-27.6v-2.4c0-5.6-1.6-11.7-4.8-18.2zM11.7 49h-.5c0-.1-.1-1.1-.2-3.1 0-.7.1-1.7.2-3.1h.5c.2 1.4.2 2.3.2 2.6 0 .8 0 2-.2 3.6zm2.6-3.1c0 .9-.2 2.5-.5 4.8v.2h-.5v-1.4c0-.5-.2-1.6-.5-3.3l.5-4.3v-.7c0-.3.2-.4.5-.5.3 2.5.5 4.2.5 5v.2zm2.4.7c0 .8-.2 2.5-.5 5v.2h-.5c0-1-.2-2.9-.5-5.7 0-.5.2-2.5.5-6.2v-.2h.5c0 .2.2 2 .5 5.5v1.4zm1.9 5.5h-.2l-.5-.3c0-.7-.1-2.5-.2-5.5.2-3.9.2-6 .2-6.4 0-.3.2-.4.5-.5h.2c0 .3.2 2.4.5 6.2 0 .5-.2 2.6-.5 6.5zm2.4.3h-.2l-.5-.2c0-.7-.1-2.5-.2-5.3 0-.6.1-2.8.2-6.7 0-.3.2-.4.5-.5h.2l.5 6.2-.5 6.5zm2.4 0h-.2c-.4 0-.7-2.2-.9-6.4.3-4.4.5-7.5.5-9.3 0-.5.2-.7.5-.7h.2c.2 1.9.3 5.1.5 9.5l-.6 6.9zm2.6-.3c-.3 0-.4.2-.5.5-.4 0-.7-1.6-.9-4.8.2 0 .2-.3.2-.8v-.2l-.2-.5c.2 0 .2-.1.2-.2v-.7l-.2-.5c.2 0 .2-.1.2-.2v-5.2l.2-1.2c-.2 0-.2-.1-.2-.3.2-1.3.2-2.4.2-3.3v-.9h.5l.5.2c0 2.2.1 6.2.2 11.9-.1 3-.2 5.1-.2 6.2zm2.6-6.2c0 1.4-.1 3.5-.2 6.4l-.5.2c-.4 0-.8-2.4-.9-7.1.2-.6.2-1.3.2-1.9v-3.6c0-1.6.1-4 .2-7.2l.5-.2.5.2c.2 5.5.2 9.5.2 11.9v1.3zm2.4 5.7c-.3.4-.5.7-.5 1h-.2c-.3 0-.5-.6-.7-1.9h.2l-.2-1.7v-3.6c0-3 .1-7.4.2-13.1l.5-.2c.2 0 .5.3.7.9 0 4.8.1 9.1.3 12.9-.2 2-.3 3.9-.3 5.7zm2.7-3.1l-.2 1.2c.2 0 .2.1.2.2-.2 0-.4.9-.5 2.6h-.5l-.5-.2c-.1-3.3-.2-5.3-.2-5.9l.2-14.1h.9c.3 3.6.5 8.9.5 15.7v.5zm2.3 2.9c0 .1-.2.5-.5 1.2h-.2c-.4-.3-.6-.5-.7-.5 0-2.8-.1-5-.2-6.7.2-3 .2-6.1.2-9.5v-2.7c.3-.5.5-.7.7-.7.5 0 .8.9.8 2.6v1.4c0 3.3.1 6.4.2 9.3-.2 1.5-.3 3.3-.3 5.6zm2.7-9.5v3.4c0 1.6-.1 4-.2 7.2l-.5.2h-.2c-.4 0-.6-.5-.7-1.4V31.6l.2-1.2h1.2v3.4l.2.5h-.2c.1 3.3.2 5.9.2 7.6zM41 52.1c-.4.3-.6.5-.7.5H40c-.5 0-.7-2.1-.7-6.2v-2.9c0-3.2.1-7.9.2-14.3.2 0 .4-.1.7-.2l.7.5c0 3.4.1 8.8.2 16.2 0 2.9-.1 5.1-.1 6.4zm21.9.5H42.4c-.3 0-.5-.4-.7-1.2.2-1.1.2-1.9.2-2.6v-5.2c0-3.2-.1-8.1-.2-14.5l.2-.5c0-.6 1.8-1.1 5.3-1.4 2.5 0 5.2 1 8.1 2.9 2.8 3.1 4.3 6.1 4.5 8.8 1.4-.3 2.2-.5 2.6-.5h.7c3.5 0 5.7 2.2 6.7 6.7.1 4.2-2.2 6.7-6.9 7.5z" fill="#bf4b4f"/><path id="XMLID_324_" class="st1" d="M11.9 45.4c0 .8-.1 2-.2 3.6h-.5c0-.1-.1-1.1-.2-3.1 0-.7.1-1.7.2-3.1h.5c.2 1.4.2 2.3.2 2.6z"/><path id="XMLID_323_" class="st1" d="M14.3 45.7v.2c0 .9-.2 2.5-.5 4.8v.2h-.5v-1.4c0-.5-.2-1.6-.5-3.3l.5-4.3v-.7c0-.3.2-.4.5-.5.4 2.5.5 4.1.5 5z"/><path id="XMLID_322_" class="st1" d="M16.7 45.2v1.4c0 .8-.2 2.5-.5 5v.2h-.5c0-1-.2-2.9-.5-5.7 0-.5.2-2.5.5-6.2v-.2h.5c0 .2.2 2 .5 5.5z"/><path id="XMLID_321_" class="st1" d="M19.1 45.7c0 .4-.2 2.6-.5 6.4h-.2l-.5-.3c0-.7-.1-2.5-.2-5.5.2-3.9.2-6 .2-6.4 0-.3.2-.4.5-.5h.2c0 .4.2 2.5.5 6.3z"/><path id="XMLID_320_" class="st1" d="M21.5 45.9l-.5 6.5h-.2l-.5-.2c0-.7-.1-2.5-.2-5.3 0-.6.1-2.8.2-6.7 0-.3.2-.4.5-.5h.2l.5 6.2z"/><path id="XMLID_319_" class="st1" d="M23.8 45.4l-.5 6.9h-.2c-.4 0-.7-2.2-.9-6.4.3-4.4.5-7.5.5-9.3 0-.5.2-.7.5-.7h.2c.1 1.9.3 5.1.4 9.5z"/><path id="XMLID_318_" class="st1" d="M26.2 45.9c-.2 3-.2 5.1-.2 6.2-.3 0-.4.2-.5.5-.4 0-.7-1.6-.9-4.8.2 0 .2-.3.2-.8v-.2l-.2-.5c.2 0 .2-.1.2-.2v-.7l-.2-.5c.2 0 .2-.1.2-.2v-5.2l.2-1.2c-.2 0-.2-.1-.2-.3.2-1.3.2-2.4.2-3.3v-.9h.5l.5.2c0 2.2.1 6.2.2 11.9z"/><path id="XMLID_98_" class="st1" d="M28.6 44.7v1.2c0 1.4-.1 3.5-.2 6.4l-.5.2c-.4 0-.8-2.4-.9-7.1.2-.6.2-1.3.2-1.9v-3.6c0-1.6.1-4 .2-7.2l.5-.2.5.2c.1 5.6.2 9.6.2 12z"/><path id="XMLID_62_" class="st1" d="M31.3 45.9c-.2 2-.3 3.9-.3 5.7-.3.4-.5.7-.5 1h-.2c-.3 0-.5-.6-.7-1.9h.2l-.2-1.7v-3.6c0-3 .1-7.4.2-13.1l.5-.2c.2 0 .5.3.7.9 0 4.8.1 9.1.3 12.9z"/><path id="XMLID_37_" class="st1" d="M33.7 48.5l-.2 1.2c.2 0 .2.1.2.2-.2 0-.4.9-.5 2.6h-.5l-.5-.2c-.1-3.3-.2-5.3-.2-5.9l.2-14.1h.9c.3 3.6.5 8.9.5 15.7v.5z"/><path id="XMLID_34_" class="st1" d="M36.3 45.9c-.2 1.4-.2 3.2-.2 5.5 0 .1-.2.5-.5 1.2h-.2c-.4-.3-.6-.5-.7-.5 0-2.8-.1-5-.2-6.7.2-3 .2-6.1.2-9.5v-2.7c.3-.5.5-.7.7-.7.5 0 .8.9.8 2.6v1.4c-.2 3.5-.1 6.6.1 9.4z"/><path id="XMLID_24_" class="st1" d="M38.4 34.2c.2 3.4.2 6 .2 7.6v3.4c0 1.6-.1 4-.2 7.2l-.5.2h-.2c-.4 0-.6-.5-.7-1.4V31.6l.2-1.2h1.2v3.4l.2.5h-.2z"/><path id="XMLID_23_" class="st1" d="M41.3 45.7c-.2 2.9-.2 5.1-.2 6.4-.4.3-.6.5-.7.5h-.3c-.5 0-.7-2.1-.7-6.2v-2.9c0-3.2.1-7.9.2-14.3.2 0 .4-.1.7-.2l.7.5c0 3.4.1 8.8.3 16.2z"/><path id="XMLID_21_" class="st1" d="M69.9 44.9c0 4.3-2.3 6.9-6.9 7.6H42.4c-.3 0-.5-.4-.7-1.2.2-1.1.2-1.9.2-2.6v-5.2c0-3.2-.1-8.1-.2-14.5l.2-.5c0-.6 1.8-1.1 5.3-1.4 2.5 0 5.2 1 8.1 2.9 2.8 3.1 4.3 6.1 4.5 8.8 1.4-.3 2.2-.5 2.6-.5h.7c3.6 0 5.8 2.2 6.8 6.6z"/></g></svg>