<svg xmlns="http://www.w3.org/2000/svg" viewBox="0 0 80.6 80.6"><path d="M67.2 10.4C58.9 3.6 50.2.2 41.3.2h-1.6c-9.5 0-18.5 3.7-27.1 11.2C4.3 20.2.2 29.9.2 40.4c0 9.9 3.7 19 10.9 27.3 8.6 8.5 18.3 12.8 29.3 12.8h.2c2.9 0 6.6-.5 10.9-1.6 9.4-3 16.9-8.4 22.3-16.2 4.4-7.7 6.6-14.5 6.6-20.2v-3.8c.1-9.9-4.3-19.3-13.2-28.3zm-5.5 19.5c0 .3-1.3 1.6-3.8 4.1v1.6c0 4.4-1.7 9-5.2 13.8-4.8 5.6-10.7 8.3-17.6 8.3-3.3 0-7.2-1-11.6-3.1v-.5h1.4c3.1 0 6.2-1 9.3-2.9v-.7c-2.8 0-5.1-1.7-6.9-5V45l1.2.2h1.2l.5-.2c-4-2.2-5.9-4.8-5.9-7.8V37c1.1.6 2.2.9 3.3.9v-.2c-2-2-3.1-3.8-3.3-5.5v-2.8c.6-1 .9-1.7.9-1.9h.3l3.3 3.1c3.6 2.8 7.8 4.6 12.8 5.2.3 0 .5-.1.5-.5v-1.9c0-1.3.2-2.3.7-3.1 1.6-3 3.8-4.5 6.4-4.5H51c1.4.2 3 1 4.8 2.4h.7c.5 0 1.9-.6 4.3-1.7h.2v.2c-.7 1.5-1.8 2.7-3.3 3.6l.2.5c1.6-.3 2.9-.7 3.8-1.2v.3z" fill="#bf4b4f"/><path d="M61.7 29.6v.2c0 .3-1.3 1.6-3.8 4.1v1.6c0 4.4-1.7 9-5.2 13.8-4.8 5.6-10.7 8.3-17.6 8.3-3.3 0-7.2-1-11.6-3.1V54h1.4c3.1 0 6.2-1 9.3-2.9v-.7c-2.8 0-5.1-1.7-6.9-5v-.5l1.2.2h1.2l.5-.2c-4-2.2-5.9-4.8-5.9-7.8V37c1.1.6 2.2.9 3.3.9v-.2c-2-2-3.1-3.8-3.3-5.5v-2.8c.6-1 .9-1.7.9-1.9h.3l3.3 3.1c3.6 2.8 7.8 4.6 12.8 5.2.3 0 .5-.1.5-.5v-1.9c0-1.3.2-2.3.7-3.1 1.6-3 3.8-4.5 6.4-4.5H51c1.4.2 3 1 4.8 2.4h.7c.5 0 1.9-.6 4.3-1.7h.2v.2c-.7 1.5-1.8 2.7-3.3 3.6l.2.5c1.7-.3 2.9-.7 3.8-1.2z" fill="#fff"/></svg>