<svg xmlns="http://www.w3.org/2000/svg" viewBox="0 0 80.6 80.6"><path d="M80 33.1c-.6-6.1-4.1-12.9-10.3-20.5C60.8 4.2 51.4 0 41.5 0h-2.4c-2.8 0-6.1.5-10 1.6-10.3 3.5-17.9 9.2-22.9 17.2C3.1 23.6 1 29.9 0 37.7c.2 0 .1.1.1.3-.2.3-.4.6-.4.9v.5c0 11 3.9 20.8 11.3 29.1C19.9 76.7 29.6 81 39.8 81h.9c2.8 0 6.7-.8 11.7-2.1 9.8-3.4 17.5-9.5 22.8-18.2 3.6-7.1 5.5-13.4 5.5-18.7v-3.3c.1-.9-.3-2.7-.7-5.6z" fill="#bf4b4f"/><path d="M20.9 27.9c-.2.4-.5.9-.7 1.7-.2.5-.4 1.2-.6 2.2-.3 2.6-.4 4.9-.4 6.9V42c0 1.7.1 3.7.3 5.9.1.7.2 1.4.3 2 .2.9.5 1.6.8 2.1.3.9 1 1.6 2.1 2.1.3.2.7.3 1.1.5.4.1.9.2 1.6.3.5.1 1.9.2 4 .2 5.1.2 8.8.2 11.1.2 2.1 0 4.8 0 8.1-.1 4.4-.2 6.9-.3 7.5-.5.6-.1 1.2-.3 1.7-.5.3-.2.6-.3.9-.5.3-.2.6-.5.9-.9.3-.5.6-1 .8-1.7.3-.5.5-1.2.6-2.1.3-2.6.5-4.9.5-7v-3.3c0-2.1-.2-4.4-.5-6.9-.2-1-.3-1.6-.5-2-.3-.8-.7-1.5-1.1-2.1l-.7-.7c-.3-.2-.7-.4-1.1-.6-.3-.1-.7-.2-1.1-.3-.6-.1-1.6-.2-3-.3-4.3-.2-8.6-.3-13.1-.3-2.3 0-4.9 0-7.8.1-2.7.1-4.9.2-6.5.3-.9 0-1.5.1-1.9.2-.8.2-1.6.5-2.2.9-.5.3-.8.6-1.1.9zm15 6l.2.1s3 1.6 9.1 4.8c1.4.7 2.1 1.1 2.2 1.1l-2 1c-.1 0-3.3 1.6-9.6 4.9V33.9z" fill="#fff"/></svg>